<svg width="26" height="27" viewBox="0 0 26 27" fill="none" xmlns="http://www.w3.org/2000/svg">
<path d="M3.66667 9.19843V19.8651M9.66667 9.19843V19.8651M16.3333 9.19843V19.8651M22.3333 9.19843V19.8651M1 21.9984L1 23.0651C1 23.8118 1 24.1852 1.14532 24.4704C1.27316 24.7213 1.47713 24.9253 1.72801 25.0531C2.01323 25.1984 2.3866 25.1984 3.13333 25.1984H22.8667C23.6134 25.1984 23.9868 25.1984 24.272 25.0531C24.5229 24.9253 24.7268 24.7213 24.8547 24.4704C25 24.1852 25 23.8118 25 23.0651V21.9984C25 21.2517 25 20.8783 24.8547 20.5931C24.7268 20.3422 24.5229 20.1383 24.272 20.0104C23.9868 19.8651 23.6134 19.8651 22.8667 19.8651H3.13333C2.3866 19.8651 2.01323 19.8651 1.72801 20.0104C1.47713 20.1383 1.27316 20.3422 1.14532 20.5931C1 20.8783 1 21.2517 1 21.9984ZM12.5372 1.30127L2.67055 3.49387C2.07447 3.62633 1.77643 3.69256 1.55395 3.85284C1.35772 3.99421 1.20364 4.18629 1.1082 4.40852C1 4.66046 1 4.96578 1 5.5764L1 7.0651C1 7.81183 1 8.1852 1.14532 8.47042C1.27316 8.7213 1.47713 8.92527 1.72801 9.05311C2.01323 9.19843 2.3866 9.19843 3.13333 9.19843H22.8667C23.6134 9.19843 23.9868 9.19843 24.272 9.05311C24.5229 8.92527 24.7268 8.7213 24.8547 8.47042C25 8.1852 25 7.81183 25 7.0651V5.5764C25 4.96578 25 4.66047 24.8918 4.40852C24.7964 4.18629 24.6423 3.99421 24.446 3.85284C24.2236 3.69256 23.9255 3.62633 23.3295 3.49387L13.4628 1.30127C13.2901 1.2629 13.2037 1.24371 13.1165 1.23605C13.039 1.22926 12.961 1.22926 12.8835 1.23605C12.7963 1.24371 12.7099 1.26289 12.5372 1.30127Z" stroke="#00AEEF" stroke-width="2" stroke-linecap="round" stroke-linejoin="round"/>
</svg>
