<svg width="30" height="22" viewBox="0 0 30 22" fill="none" xmlns="http://www.w3.org/2000/svg">
<path d="M28.3333 8.53141H1.66667M13.6667 13.8647H7M1.66667 6.13141L1.66667 16.2647C1.66667 17.7582 1.66667 18.505 1.95732 19.0754C2.21298 19.5771 2.62093 19.9851 3.12269 20.2408C3.69312 20.5314 4.43986 20.5314 5.93333 20.5314L24.0667 20.5314C25.5601 20.5314 26.3069 20.5314 26.8773 20.2408C27.3791 19.9851 27.787 19.5772 28.0427 19.0754C28.3333 18.505 28.3333 17.7582 28.3333 16.2647V6.13141C28.3333 4.63794 28.3333 3.8912 28.0427 3.32077C27.787 2.81901 27.3791 2.41106 26.8773 2.1554C26.3069 1.86475 25.5601 1.86475 24.0667 1.86475L5.93333 1.86475C4.43986 1.86475 3.69312 1.86475 3.12269 2.1554C2.62093 2.41106 2.21298 2.81901 1.95732 3.32077C1.66667 3.8912 1.66667 4.63794 1.66667 6.13141Z" stroke="#00AEEF" stroke-width="2" stroke-linecap="round" stroke-linejoin="round"/>
</svg>
