<svg width="35" height="36" viewBox="0 0 35 36" fill="none" xmlns="http://www.w3.org/2000/svg">
<path fill-rule="evenodd" clip-rule="evenodd" d="M1.74854 18.0991C1.74854 26.7835 8.81563 33.8491 17.5 33.8491C26.1844 33.8491 33.2515 26.7835 33.2515 18.0991C33.2515 9.41475 26.1844 2.34912 17.5 2.34912C8.81563 2.34912 1.74854 9.41475 1.74854 18.0991ZM0 18.0991C0 8.44933 7.85021 0.599121 17.5 0.599121C27.1498 0.599121 35 8.44933 35 18.0991C35 27.7489 27.1498 35.5991 17.5 35.5991C7.85021 35.5991 0 27.7489 0 18.0991ZM24.6808 12.1551L24.0625 12.7734L18.7381 18.0993L24.0625 23.4251L24.6808 24.0434C25.0221 24.3832 25.0221 24.9389 24.6808 25.2801C24.5102 25.4507 24.2856 25.5353 24.0625 25.5353C23.8394 25.5353 23.6148 25.4507 23.4442 25.2801L17.5 19.3359L11.5558 25.2801C11.3852 25.4507 11.1606 25.5353 10.9375 25.5353C10.7144 25.5353 10.4898 25.4507 10.3192 25.2801C9.97646 24.9389 9.97646 24.3832 10.3192 24.0434L10.9375 23.4236L16.2619 18.0993L10.9375 12.7734L10.3192 12.1551C9.97646 11.8139 9.97646 11.2597 10.3192 10.9184C10.6604 10.5757 11.2146 10.5757 11.5558 10.9184L17.5 16.8611L23.4442 10.9184C23.7869 10.5757 24.3381 10.5757 24.6808 10.9184C25.0221 11.2597 25.0221 11.8139 24.6808 12.1551Z" fill="white"/>
<mask id="mask0_728_17811" style="mask-type:luminance" maskUnits="userSpaceOnUse" x="0" y="0" width="35" height="36">
<path fill-rule="evenodd" clip-rule="evenodd" d="M1.74854 18.0991C1.74854 26.7835 8.81563 33.8491 17.5 33.8491C26.1844 33.8491 33.2515 26.7835 33.2515 18.0991C33.2515 9.41475 26.1844 2.34912 17.5 2.34912C8.81563 2.34912 1.74854 9.41475 1.74854 18.0991ZM0 18.0991C0 8.44933 7.85021 0.599121 17.5 0.599121C27.1498 0.599121 35 8.44933 35 18.0991C35 27.7489 27.1498 35.5991 17.5 35.5991C7.85021 35.5991 0 27.7489 0 18.0991ZM24.6808 12.1551L24.0625 12.7734L18.7381 18.0993L24.0625 23.4251L24.6808 24.0434C25.0221 24.3832 25.0221 24.9389 24.6808 25.2801C24.5102 25.4507 24.2856 25.5353 24.0625 25.5353C23.8394 25.5353 23.6148 25.4507 23.4442 25.2801L17.5 19.3359L11.5558 25.2801C11.3852 25.4507 11.1606 25.5353 10.9375 25.5353C10.7144 25.5353 10.4898 25.4507 10.3192 25.2801C9.97646 24.9389 9.97646 24.3832 10.3192 24.0434L10.9375 23.4236L16.2619 18.0993L10.9375 12.7734L10.3192 12.1551C9.97646 11.8139 9.97646 11.2597 10.3192 10.9184C10.6604 10.5757 11.2146 10.5757 11.5558 10.9184L17.5 16.8611L23.4442 10.9184C23.7869 10.5757 24.3381 10.5757 24.6808 10.9184C25.0221 11.2597 25.0221 11.8139 24.6808 12.1551Z" fill="white"/>
</mask>
<g mask="url(#mask0_728_17811)">
</g>
</svg>
