<svg width="49" height="21" viewBox="0 0 49 21" fill="none" xmlns="http://www.w3.org/2000/svg">
<g clip-path="url(#clip0_778_22178)">
<path d="M23.175 10.269V16.135H21.3657V1.65465H26.1644C27.3219 1.63156 28.4344 2.08191 29.2773 2.91332C30.1201 3.68699 30.5921 4.80708 30.5697 5.96181C30.5921 7.1281 30.1201 8.24819 29.2773 9.03341C28.4344 9.85327 27.4005 10.269 26.1756 10.269H23.175ZM23.175 3.43295V8.49068H26.2093C26.8836 8.51378 27.5354 8.23664 27.9962 7.74011C28.9514 6.79322 28.9626 5.23433 28.0411 4.25281L27.9962 4.20662C27.5354 3.69853 26.8836 3.4214 26.2093 3.44449L23.175 3.43295ZM34.739 5.90408C36.0763 5.90408 37.1327 6.27359 37.9081 7.00108C38.6835 7.74011 39.0656 8.74472 39.0656 10.0265V16.1235H37.3349V14.7493H37.2563C36.5033 15.881 35.5144 16.4468 34.267 16.4468C33.2106 16.4468 32.3116 16.1235 31.6036 15.4768C30.9068 14.8764 30.5135 13.9872 30.5359 13.0519C30.5359 12.0242 30.918 11.2159 31.671 10.6038C32.4239 9.99184 33.4354 9.69161 34.694 9.69161C35.7729 9.69161 36.6494 9.89946 37.3462 10.2921V9.86482C37.3462 9.22971 37.0765 8.62925 36.6045 8.22509C36.1212 7.78629 35.5031 7.5438 34.8626 7.5438C33.8512 7.5438 33.0533 7.9826 32.4576 8.8602L30.8618 7.83248C31.7272 6.55073 33.0195 5.90408 34.739 5.90408ZM32.4015 13.0981C32.4015 13.5831 32.6262 14.0334 32.9971 14.3105C33.4016 14.6339 33.8961 14.8071 34.4018 14.7955C35.166 14.7955 35.8965 14.4838 36.4359 13.9295C37.0315 13.3521 37.3349 12.6708 37.3349 11.8856C36.773 11.4237 35.9864 11.1928 34.975 11.1928C34.2445 11.1928 33.6264 11.3775 33.1319 11.7355C32.6487 12.105 32.4015 12.5553 32.4015 13.0981ZM49 6.2274L42.954 20.4999H41.0884L43.336 15.5115L39.3578 6.23895H41.3244L44.1901 13.3521H44.2351L47.0334 6.23895L49 6.2274Z" fill="#5F6368"/>
<path d="M15.8591 8.9989C15.8591 8.43308 15.8141 7.86726 15.7242 7.31299H8.09363V10.5116H12.4652C12.2854 11.5393 11.701 12.4631 10.8469 13.0405V15.119H13.4542C14.9825 13.6756 15.8591 11.5393 15.8591 8.9989Z" fill="#4285F4"/>
<path d="M8.09362 17.1283C10.2738 17.1283 12.1168 16.3892 13.4542 15.119L10.8469 13.0405C10.1165 13.5486 9.18371 13.8373 8.09362 13.8373C5.98087 13.8373 4.19403 12.3708 3.55346 10.4077H0.867577V12.5555C2.23861 15.35 5.03688 17.1283 8.09362 17.1283Z" fill="#34A853"/>
<path d="M3.55346 10.4078C3.21632 9.38008 3.21632 8.25999 3.55346 7.22073V5.08447H0.867572C-0.289944 7.42858 -0.289944 10.1999 0.867572 12.5441L3.55346 10.4078Z" fill="#FBBC04"/>
<path d="M8.09362 3.79101C9.25114 3.76791 10.3637 4.21826 11.1953 5.03812L13.4991 2.67091C12.0382 1.25059 10.1052 0.47692 8.09362 0.500014C5.03688 0.500014 2.23861 2.27831 0.867577 5.08431L3.55346 7.23212C4.19403 5.25752 5.98087 3.79101 8.09362 3.79101Z" fill="#EA4335"/>
</g>
<defs>
<clipPath id="clip0_778_22178">
<rect width="49" height="20" fill="white" transform="translate(0 0.5)"/>
</clipPath>
</defs>
</svg>
