<svg width="48" height="16" viewBox="0 0 48 16" fill="none" xmlns="http://www.w3.org/2000/svg">
<g clip-path="url(#clip0_778_22012)">
<path fill-rule="evenodd" clip-rule="evenodd" d="M0.544131 3.43005C0.544131 3.09752 0.764789 2.92676 1.0384 2.92676H5.83108C7.30507 3.09752 8.32892 3.86145 8.43484 5.86564V8.57984C8.43484 8.98428 8.40836 9.3258 8.29361 9.71226C7.91408 11.0154 6.99615 11.6625 5.62808 11.7614H3.57155V15.0777C3.57155 15.3294 3.36854 15.4552 3.11258 15.4552H0.958967C0.694178 15.4552 0.5 15.3024 0.5 15.0058L0.544131 3.43005ZM3.5892 6.00944H4.86901C5.15145 6.00944 5.38977 6.2521 5.38977 6.5397V8.10351C5.38977 8.40009 5.15145 8.63377 4.86901 8.63377H3.5892V6.00045V6.00944Z" fill="#253081"/>
<path fill-rule="evenodd" clip-rule="evenodd" d="M10.7915 2.94434H14.1454C16.1049 3.06117 17.1729 4.1127 17.1376 6.28766V14.3404C17.1376 14.9695 16.5197 15.4368 15.9901 15.4368H11.5946C10.2619 15.4368 9.37925 14.3763 9.15859 13.3428C8.94676 12.3452 9.10563 11.1409 9.10563 10.1253C9.10563 8.55248 10.1295 6.99766 11.833 6.99766H13.6247C14.1454 6.9707 14.119 5.81132 13.6247 5.85626H10.8268C10.5443 5.85626 10.3413 5.70347 10.3148 5.40689V3.29485C10.3148 3.02522 10.5355 2.94434 10.7915 2.94434ZM12.6361 9.90958H13.66C13.8983 9.90958 14.1013 10.1073 14.1013 10.359V12.1744C14.1013 12.4171 13.9071 12.6238 13.66 12.6238H12.6361C12.3978 12.6238 12.1948 12.4261 12.1948 12.1744V10.359C12.1948 10.1163 12.389 9.90958 12.6361 9.90958Z" fill="#253081"/>
<path fill-rule="evenodd" clip-rule="evenodd" d="M18.1702 3.51065V8.59753C18.2938 10.1973 19.6972 11.3836 21.2241 11.3836H22.6363C23.2189 11.3836 23.1836 12.3812 22.6363 12.3812H19.5736C19.2382 12.3812 19.1235 12.561 19.1235 12.8576V15.0954C19.1235 15.3201 19.3 15.4909 19.5383 15.4909H22.3715C24.737 15.4909 26.0874 14.3315 26.0874 11.7431V3.31293C26.0874 3.03432 25.9197 2.92647 25.752 2.92647H23.3777C23.1571 2.92647 23.0335 3.16913 23.0335 3.34888V7.9774C23.0335 8.17512 22.9276 8.29196 22.7511 8.29196H21.6301C21.3742 8.29196 21.233 8.14816 21.233 7.89651V3.42976C21.233 3.13318 21.1182 2.91748 20.7916 2.91748H18.5056C18.2497 2.91748 18.1791 3.17812 18.1791 3.51065H18.1702Z" fill="#253081"/>
<path fill-rule="evenodd" clip-rule="evenodd" d="M27.2878 5.60466V3.40275C27.2878 3.16907 27.482 2.97135 27.7115 2.97135H28.2322C29.5738 2.68375 29.8916 1.88387 30.7124 0.98513C31.2155 0.427911 31.6568 0.284112 31.9834 0.868294V2.96236H33.2102C33.4397 2.96236 33.6339 3.16009 33.6339 3.39376V5.59568C33.6339 5.82935 33.4397 6.02707 33.2102 6.02707H31.9834V15.0415C31.9834 15.2751 31.798 15.4728 31.5597 15.4728H29.3973C29.1678 15.4728 28.9736 15.2841 28.9736 15.0415V6.03606H27.7115C27.482 6.03606 27.2878 5.84732 27.2878 5.60466Z" fill="#009FE3"/>
<path fill-rule="evenodd" clip-rule="evenodd" d="M42.5926 14.9067C42.5926 15.2033 42.3543 15.437 42.063 15.437H40.0418C39.7505 15.437 39.5122 15.1943 39.5122 14.9067V6.62933C39.5299 5.73059 37.7558 5.59578 37.7558 6.62933V14.9067C37.7558 15.2033 37.5175 15.437 37.2262 15.437H35.205C34.9137 15.437 34.6754 15.1943 34.6754 14.9067V3.42981C34.6754 3.13323 34.9137 2.89057 35.205 2.89057H37.2262C37.5175 2.89057 37.7558 3.13323 37.7558 3.42981V3.59158C38.9385 2.4412 40.9862 2.62094 42.0807 3.81627C44.1372 1.41663 47.65 3.55563 47.4912 6.18895C47.4912 9.09188 47.4647 11.9768 47.4647 14.9067C47.4647 15.2033 47.2264 15.437 46.9351 15.437H44.9139C44.6226 15.437 44.3843 15.1943 44.3843 14.9067V6.68326C44.2696 5.53287 42.5661 5.80249 42.5661 6.68326C42.5661 9.41543 42.5838 12.1476 42.5838 14.9067H42.5926Z" fill="#009FE3"/>
</g>
<defs>
<clipPath id="clip0_778_22012">
<rect width="47" height="15" fill="white" transform="translate(0.5 0.5)"/>
</clipPath>
</defs>
</svg>
