<svg width="26" height="27" viewBox="0 0 26 27" fill="none" xmlns="http://www.w3.org/2000/svg">
<path d="M19 15.8649H19.0133M1 3.86491V22.5316C1 24.0043 2.19391 25.1982 3.66667 25.1982H22.3333C23.8061 25.1982 25 24.0043 25 22.5316V9.19824C25 7.72548 23.8061 6.53158 22.3333 6.53158L3.66667 6.53158C2.19391 6.53158 1 5.33767 1 3.86491ZM1 3.86491C1 2.39215 2.19391 1.19824 3.66667 1.19824H19.6667M19.6667 15.8649C19.6667 16.2331 19.3682 16.5316 19 16.5316C18.6318 16.5316 18.3333 16.2331 18.3333 15.8649C18.3333 15.4967 18.6318 15.1982 19 15.1982C19.3682 15.1982 19.6667 15.4967 19.6667 15.8649Z" stroke="#00AEEF" stroke-width="2" stroke-linecap="round" stroke-linejoin="round"/>
</svg>
